<svg xmlns="http://www.w3.org/2000/svg" fill="none" viewBox="0 0 89 14">
  <path fill-rule="evenodd" clip-rule="evenodd" d="M71.053 13.039L72.97 2.756h2.426l.254 1.013c.434-.507 1.268-1.013 2.679-1.013l-.76 2.679c-.688 0-1.991-.18-2.824 2.896l-.869 4.708h-2.824zM33.873.143h2.795l-.574 2.725H37.6l-.501 2.222h-1.434l-.788 4.157c-.144.79-.072 1.506 1.541 1.255l-.179 2.078c-.61.394-1.434.502-2.079.502-.645 0-2.76-.395-2.221-3.19L33.871.143zM45.987 8.46c.322-1.65 1.075-5.735-3.835-5.735-4.517 0-5.09 4.48-5.198 5.125-.107.646-.18 5.197 4.66 5.197 1.182.036 2.903-.107 3.585-.466l.43-2.114c-.43.107-2.044.251-3.155.251-1.111 0-2.903.072-2.581-2.258h6.094z" fill="#fff"/>
  <path fill-rule="evenodd" clip-rule="evenodd" d="M40.073 6.595h3.477c.18-1.004-.143-1.864-1.254-1.864s-1.9.574-2.223 1.864c0 0 .324-1.29 0 0z" fill="#215BFF"/>
  <path fill-rule="evenodd" clip-rule="evenodd" d="M31.22 5.161l.645-2.079c-1.327-.501-2.366-.394-2.76-.394-.395 0-3.751-.041-4.266 2.437-.394 1.9.302 2.687.968 2.975 1.075.466 1.685.896 2.259 1.183.709.355.579 1.542-.36 1.542-.43 0-2.294.215-3.691-.251l-.394 2.114c1.29.359 2.329.359 3.297.359.68 0 4.015.18 4.48-2.903.228-1.504-.43-2.187-.967-2.51a15.78 15.78 0 00-2.008-1.111c-.573-.25-1.003-1.218.037-1.505.645-.073 1.971-.073 2.76.143 0 0-.789-.216 0 0zm-18.137 7.885L15.413.644h-4.588L7.42 8.172 6.882.644h-4.48L0 13.046h2.796l1.72-8.96.753 8.96h2.653l3.907-8.745-1.65 8.745h2.904zm3.082-10l-.43 2.222c.682-.071 2.51-.358 3.477-.323.968.037 2.043-.107 1.72 1.434-.717.073-5.735-.717-6.523 3.584-.323 2.116 1.505 3.19 2.939 3.119 1.434-.072 1.828-.252 2.33-.61l.359.573h2.616l1.112-5.59c.287-1.398.751-4.768-3.944-4.768-.86.037-1.827 0-3.656.36 0 0 1.829-.36 0 0z" fill="#fff"/>
  <path fill-rule="evenodd" clip-rule="evenodd" d="M20.467 8.459c-.466-.072-1.505-.36-2.402.25-.897.61-1.147 1.685-.215 2.044.897.345 2.221-.25 2.402-1.183l.215-1.111z" fill="#215BFF"/>
  <path fill-rule="evenodd" clip-rule="evenodd" d="M61.471 3.512c-.717-.43-1.218-.501-2.15-.501-.931 0-3.011.89-3.405 3.404-.466 2.975 1.578 4.445 4.444 3.477l.825 2.51c-.932.429-1.863.644-3.405.644-2.903 0-6.057-2.58-4.624-7.814C54.213 1.376 57.53-.037 59.464.035c2.294.085 3.12.86 3.836 1.649l-1.829 1.828zm23.837.43c-.538-.394-.86-1.218-2.186-1.218-1.541 0-3.943-.287-5.305 4.372-.91 3.116.931 5.95 2.938 5.95.933-.035 1.865-.43 2.438-.824l.36.824h3.01L89 0h-2.94l-.752 3.942z" fill="#fff"/>
  <path fill-rule="evenodd" clip-rule="evenodd" d="M84.305 8.136c.287-.932.13-2.096-.18-2.51-.86-1.146-2.838-.24-3.44 2.008-.395 1.469.465 2.58 1.433 2.58 1.04 0 1.684-.824 2.187-2.078z" fill="#215BFF"/>
  <path fill-rule="evenodd" clip-rule="evenodd" d="M63.48 3.046l-.43 2.222c.68-.071 2.509-.358 3.476-.323.969.036 2.044-.107 1.72 1.433-.716.073-5.734-.716-6.522 3.584-.324 2.117 1.504 3.191 2.938 3.12 1.435-.072 1.829-.252 2.33-.61l.36.573h2.614l1.113-5.591c.286-1.398.752-4.768-3.944-4.768-.86.038-1.827.001-3.656.36 0 0 1.83-.359 0 0z" fill="#fff"/>
  <path fill-rule="evenodd" clip-rule="evenodd" d="M67.78 8.459c-.466-.072-1.505-.36-2.402.25-.897.61-1.147 1.685-.214 2.044.898.345 2.221-.25 2.401-1.183l.215-1.111z" fill="#215BFF"/>
  <path fill-rule="evenodd" clip-rule="evenodd" d="M46.069 13.046l1.899-10.18h2.402l.25 1.004c.43-.502 1.255-1.003 2.652-1.003l-.716 2.688c-.681 0-2.008-.215-2.832 2.831l-.86 4.66H46.07z" fill="#fff"/>
</svg>
