<svg xmlns="http://www.w3.org/2000/svg" fill="none" viewBox="0 0 97 97">
  <path d="M48.025 96.052c26.525 0 48.026-21.502 48.026-48.026C96.05 21.502 74.55 0 48.025 0 21.502 0 0 21.502 0 48.026 0 74.55 21.502 96.052 48.025 96.052z" fill="#215BFF"/>
  <path d="M21.715 37.935h9.297c2.748 0 4.703.792 5.918 2.377 1.215 1.532 1.638 3.646 1.215 6.34-.159 1.215-.528 2.43-1.056 3.593a10.76 10.76 0 01-2.22 3.17c-1.162 1.215-2.377 1.955-3.697 2.271a17.437 17.437 0 01-4.07.476H22.93l-1.32 6.605H16.8l4.915-24.832zm4.014 3.91l-2.06 10.407c.159 0 .264.054.422.054h.476c2.219 0 4.068-.212 5.548-.634 1.48-.476 2.482-2.166 2.958-5.073.423-2.43 0-3.804-1.268-4.173-1.215-.37-2.747-.529-4.597-.529-.263 0-.528.053-.792.053-.21-.053-.476-.053-.687-.106zm17.857-10.567h4.755l-1.373 6.604h4.28c2.377.053 4.12.528 5.283 1.48 1.162.897 1.532 2.694 1.056 5.283l-2.324 11.517h-4.861l2.22-10.989c.21-1.162.157-1.955-.212-2.483-.37-.476-1.163-.74-2.377-.74l-3.858-.053-2.852 14.213h-4.756l5.02-24.832zm19.179 6.657h9.3c2.747 0 4.701.792 5.917 2.377 1.215 1.532 1.638 3.646 1.215 6.34-.159 1.215-.528 2.43-1.056 3.593a10.778 10.778 0 01-2.22 3.17c-1.162 1.215-2.378 1.955-3.698 2.271a17.437 17.437 0 01-4.069.476h-4.173l-1.321 6.605h-4.808l4.913-24.832zm4.016 3.91l-2.06 10.407c.158 0 .264.054.422.054h.476c2.218 0 4.068-.212 5.547-.634 1.48-.476 2.483-2.166 2.959-5.073.423-2.43 0-3.804-1.268-4.173-1.215-.37-2.748-.529-4.597-.529-.264 0-.528.053-.792.053-.211-.053-.476-.053-.687-.106z" fill="#fff"/>
</svg>
