<svg xmlns="http://www.w3.org/2000/svg" fill="none" viewBox="0 0 103 103">
  <path d="M51.368 102.735c28.369 0 51.367-22.998 51.367-51.368C102.735 22.998 79.737 0 51.368 0 22.998 0 0 22.998 0 51.367c0 28.37 22.998 51.368 51.368 51.368z" fill="#215BFF"/>
  <path d="M51.028 86.404a5.25 5.25 0 01-2.599-.678l-8.194-4.86c-1.243-.678-.621-.904-.226-1.074 1.639-.565 1.978-.678 3.73-1.695.169-.113.395-.057.621.056l6.273 3.73c.226.113.565.113.735 0l24.525-14.184c.226-.113.395-.396.395-.678V38.709c0-.282-.169-.508-.395-.678L51.368 23.847a.84.84 0 00-.735 0L26.108 38.031c-.226.113-.396.396-.396.678v28.312c0 .282.17.508.396.678l6.724 3.899c3.674 1.808 5.877-.339 5.877-2.486V41.139c0-.395.339-.735.735-.735h3.108c.396 0 .735.34.735.735v27.973c0 4.859-2.656 7.685-7.29 7.685-1.413 0-2.543 0-5.651-1.526l-6.442-3.729c-1.582-.905-2.599-2.656-2.599-4.465V38.766c0-1.865.96-3.56 2.599-4.465l24.525-14.184c1.526-.904 3.617-.904 5.142 0l24.525 14.184c1.583.905 2.6 2.656 2.6 4.465v28.311c0 1.865-.961 3.56-2.6 4.465L53.571 85.726c-.734.452-1.638.678-2.543.678z" fill="#fff"/>
  <path d="M58.601 66.908c-10.737 0-12.997-4.917-12.997-9.042 0-.395.339-.734.734-.734h3.165c.339 0 .678.282.678.621.452 3.221 1.921 4.86 8.42 4.86 5.199 0 7.346-1.187 7.346-3.899 0-1.582-.622-2.769-8.646-3.56-6.725-.678-10.85-2.148-10.85-7.516 0-4.973 4.182-7.912 11.189-7.912 7.855 0 11.754 2.713 12.263 8.59a.954.954 0 01-.17.565c-.113.113-.339.226-.508.226H66.06a.67.67 0 01-.678-.565c-.791-3.391-2.6-4.464-7.685-4.464-5.651 0-6.329 1.978-6.329 3.447 0 1.808.791 2.317 8.419 3.334 7.516 1.017 11.133 2.43 11.133 7.685-.113 5.312-4.521 8.364-12.319 8.364z" fill="#fff"/>
</svg>
