<svg xmlns="http://www.w3.org/2000/svg" fill="none" viewBox="0 0 103 103">
  <path d="M51.367 102.735c28.369 0 51.367-22.998 51.367-51.367C102.734 22.998 79.736 0 51.367 0 22.997 0 0 22.998 0 51.368s22.997 51.367 51.367 51.367z" fill="#215BFF"/>
  <path d="M51.028 21.813c-2.43 0-4.691.226-6.725.565-5.934 1.074-7.064 3.278-7.064 7.346v5.369H51.31V36.9H31.927c-4.068 0-7.685 2.487-8.815 7.12-1.3 5.369-1.356 8.703 0 14.297 1.017 4.182 3.39 7.121 7.459 7.121h4.86v-6.443c0-4.633 4.012-8.759 8.815-8.759h14.071c3.899 0 7.064-3.22 7.064-7.176V29.724c0-3.842-3.221-6.668-7.064-7.346-2.373-.396-4.916-.565-7.289-.565zm-7.629 4.351c1.469 0 2.656 1.187 2.656 2.713a2.653 2.653 0 01-2.656 2.656 2.652 2.652 0 01-2.656-2.656c0-1.526 1.186-2.713 2.656-2.713z" fill="#fff"/>
  <path d="M67.133 36.901v6.273c0 4.86-4.125 8.928-8.816 8.928H44.246c-3.842 0-7.063 3.278-7.063 7.177v13.393c0 3.843 3.334 6.046 7.063 7.177 4.465 1.3 8.759 1.525 14.071 0 3.56-1.018 7.064-3.108 7.064-7.177v-5.425H51.31V65.44h21.135c4.068 0 5.594-2.882 7.063-7.12 1.47-4.409 1.413-8.647 0-14.298-1.017-4.068-2.938-7.12-7.063-7.12h-5.312zm-7.912 33.963a2.652 2.652 0 012.656 2.656c0 1.47-1.186 2.712-2.656 2.712-1.469 0-2.656-1.187-2.656-2.712a2.653 2.653 0 012.656-2.656z" fill="#fff"/>
</svg>
