<svg xmlns="http://www.w3.org/2000/svg" fill="none" viewBox="0 0 97 97">
  <path d="M48.026 96.052c26.524 0 48.026-21.502 48.026-48.027C96.052 21.502 74.55 0 48.026 0 21.502 0 0 21.502 0 48.025 0 74.55 21.502 96.052 48.026 96.052z" fill="#215BFF"/>
  <path d="M47.708 80.783c-.845 0-1.69-.211-2.43-.634l-7.66-4.544c-1.163-.634-.581-.845-.212-1.004 1.532-.528 1.85-.634 3.487-1.585.158-.105.37-.053.581.053l5.865 3.487c.211.106.528.106.687 0l22.93-13.261c.21-.106.369-.37.369-.634V36.19c0-.264-.158-.475-.37-.634L48.027 22.295a.785.785 0 00-.687 0L24.41 35.557c-.21.105-.37.37-.37.634v26.47c0 .264.16.475.37.634l6.287 3.645c3.435 1.69 5.495-.317 5.495-2.324V38.463a.7.7 0 01.687-.688h2.906a.7.7 0 01.687.688v26.153c0 4.543-2.483 7.185-6.816 7.185-1.321 0-2.378 0-5.283-1.427l-6.023-3.486c-1.48-.846-2.43-2.484-2.43-4.175V36.244c0-1.744.897-3.328 2.43-4.175l22.93-13.26c1.426-.846 3.381-.846 4.807 0l22.93 13.26c1.48.847 2.43 2.484 2.43 4.175v26.47c0 1.743-.898 3.328-2.43 4.174l-22.93 13.261c-.686.423-1.532.634-2.378.634z" fill="#fff"/>
  <path d="M54.79 62.555c-10.039 0-12.152-4.597-12.152-8.454a.7.7 0 01.686-.686h2.96c.316 0 .633.264.633.58.423 3.012 1.796 4.545 7.873 4.545 4.86 0 6.868-1.11 6.868-3.646 0-1.479-.582-2.589-8.084-3.328-6.287-.634-10.144-2.008-10.144-7.027 0-4.65 3.91-7.397 10.461-7.397 7.344 0 10.99 2.536 11.465 8.03a.89.89 0 01-.159.529.783.783 0 01-.475.211h-2.959a.627.627 0 01-.634-.528c-.74-3.17-2.43-4.174-7.185-4.174-5.283 0-5.917 1.85-5.917 3.223 0 1.69.74 2.166 7.871 3.117 7.027.951 10.41 2.272 10.41 7.185-.107 4.967-4.228 7.82-11.518 7.82z" fill="#fff"/>
</svg>
