<svg xmlns="http://www.w3.org/2000/svg" fill="none" viewBox="0 0 103 103">
  <path d="M51.367 102.735c28.37 0 51.367-22.998 51.367-51.367C102.734 22.998 79.737 0 51.367 0 22.998 0 0 22.998 0 51.368s22.998 51.367 51.367 51.367z" fill="#215BFF"/>
  <path d="M23.226 40.574h9.945c2.939 0 5.03.848 6.329 2.543 1.3 1.639 1.752 3.9 1.3 6.781-.17 1.3-.565 2.6-1.13 3.843a11.512 11.512 0 01-2.374 3.391c-1.243 1.3-2.543 2.09-3.955 2.43a18.65 18.65 0 01-4.352.508h-4.464l-1.412 7.064H17.97l5.256-26.56zm4.294 4.182l-2.204 11.132c.17 0 .283.057.452.057h.509c2.373 0 4.351-.226 5.934-.678 1.582-.509 2.655-2.317 3.164-5.425.452-2.6 0-4.069-1.356-4.464-1.3-.396-2.939-.566-4.917-.566-.282 0-.565.057-.847.057-.226-.056-.509-.056-.735-.113zm19.1-11.302h5.086l-1.469 7.064h4.577c2.543.056 4.408.565 5.651 1.582 1.243.96 1.639 2.882 1.13 5.651l-2.486 12.32H53.91l2.374-11.755c.226-1.243.169-2.09-.226-2.656-.396-.508-1.244-.79-2.543-.79l-4.126-.057-3.051 15.201h-5.086l5.368-26.56zm20.513 7.12h9.946c2.939 0 5.029.848 6.329 2.543 1.3 1.639 1.752 3.9 1.3 6.781-.17 1.3-.565 2.6-1.13 3.843a11.53 11.53 0 01-2.374 3.391c-1.243 1.3-2.543 2.09-3.955 2.43a18.65 18.65 0 01-4.352.508h-4.464l-1.413 7.064h-5.142l5.255-26.56zm4.295 4.182l-2.204 11.132c.17 0 .283.057.452.057h.509c2.373 0 4.351-.226 5.933-.678 1.583-.509 2.656-2.317 3.165-5.425.452-2.6 0-4.069-1.356-4.464-1.3-.396-2.939-.566-4.917-.566-.282 0-.565.057-.847.057-.226-.056-.509-.056-.735-.113z" fill="#fff"/>
</svg>
