<svg xmlns="http://www.w3.org/2000/svg" fill="none" viewBox="0 0 97 97">
  <path d="M48.025 96.052c26.524 0 48.026-21.502 48.026-48.026C96.05 21.502 74.549 0 48.025 0 21.501 0 0 21.502 0 48.026 0 74.55 21.5 96.052 48.025 96.052z" fill="#215BFF"/>
  <path d="M47.71 20.394a38.25 38.25 0 00-6.288.528c-5.548 1.004-6.605 3.064-6.605 6.869v5.019h13.156v1.69H29.85c-3.804 0-7.185 2.325-8.242 6.657-1.215 5.02-1.268 8.137 0 13.367.951 3.91 3.17 6.658 6.974 6.658h4.544v-6.024c0-4.331 3.75-8.189 8.241-8.189h13.156c3.645 0 6.604-3.011 6.604-6.71V27.791c0-3.593-3.011-6.235-6.604-6.869-2.219-.37-4.596-.528-6.815-.528zm-7.134 4.068c1.374 0 2.484 1.11 2.484 2.536a2.48 2.48 0 01-2.484 2.483 2.48 2.48 0 01-2.483-2.483c0-1.427 1.11-2.536 2.483-2.536z" fill="#fff"/>
  <path d="M62.765 34.5v5.865c0 4.544-3.857 8.348-8.243 8.348H41.367c-3.592 0-6.604 3.065-6.604 6.71v12.522c0 3.593 3.117 5.652 6.604 6.71 4.174 1.214 8.189 1.425 13.155 0 3.329-.952 6.605-2.906 6.605-6.71v-5.072H47.97v-1.69h19.76c3.804 0 5.23-2.695 6.604-6.659 1.374-4.12 1.32-8.083 0-13.366-.951-3.804-2.747-6.657-6.604-6.657h-4.966zm-7.397 31.754a2.48 2.48 0 012.483 2.483c0 1.374-1.11 2.536-2.483 2.536-1.374 0-2.484-1.11-2.484-2.536a2.48 2.48 0 012.484-2.483z" fill="#fff"/>
</svg>
