<svg xmlns="http://www.w3.org/2000/svg" fill="none" viewBox="0 0 106 106">
  <g filter="url(#m1DpDAd7Oda)" transform="rotate(-48.094 42.776 32.776)">
    <circle cx="42.776" cy="32.776" r="22.502" fill="url(#m1DpDAd7Odb)" fill-opacity=".6"/>
    <circle cx="42.776" cy="32.776" r="21.502" stroke="url(#m1DpDAd7Odc)" stroke-opacity=".65" stroke-width="2"/>
  </g>
  <path d="M36.002 33.541L36 33.01c0-2.208.127-4.22.319-5.532l.168-.816c.093-.432.216-.924.344-1.175.468-.919 1.384-1.487 2.364-1.487h.086c.639.021 1.981.591 1.981.611 2.16.922 6.329 3.703 8.254 5.685l.559.595c.146.162.31.353.413.501A2.68 2.68 0 0151 32.988c0 .635-.192 1.225-.554 1.707l-.575.63-.128.135c-1.747 1.925-6.307 5.073-8.693 6.036l-.36.14c-.434.158-1.041.347-1.41.364-.468 0-.915-.11-1.342-.329a2.814 2.814 0 01-1.193-1.356c-.15-.394-.384-1.575-.384-1.596-.216-1.192-.34-3.071-.359-5.178z" fill="#fff"/>
  <defs>
    <linearGradient id="m1DpDAd7Odb" x1="20.274" y1="10.274" x2="73.942" y2="37.37" gradientUnits="userSpaceOnUse">
      <stop stop-color="#fff"/>
      <stop offset="1" stop-color="#fff" stop-opacity="0"/>
    </linearGradient>
    <linearGradient id="m1DpDAd7Odc" x1="20.623" y1="10.633" x2="73.902" y2="37.586" gradientUnits="userSpaceOnUse">
      <stop stop-color="#fff"/>
      <stop offset="1" stop-color="#fff" stop-opacity="0"/>
    </linearGradient>
    <filter id="m1DpDAd7Oda" x=".274" y="-9.726" width="105.003" height="115.003" filterUnits="userSpaceOnUse" color-interpolation-filters="sRGB">
      <feFlood flood-opacity="0" result="BackgroundImageFix"/>
      <feGaussianBlur in="BackgroundImage" stdDeviation="10"/>
      <feComposite in2="SourceAlpha" operator="in" result="effect1_backgroundBlur"/>
      <feColorMatrix in="SourceAlpha" values="0 0 0 0 0 0 0 0 0 0 0 0 0 0 0 0 0 0 127 0" result="hardAlpha"/>
      <feOffset dx="10" dy="20"/>
      <feGaussianBlur stdDeviation="15"/>
      <feColorMatrix values="0 0 0 0 0 0 0 0 0 0 0 0 0 0 0 0 0 0 0.02 0"/>
      <feBlend in2="effect1_backgroundBlur" result="effect2_dropShadow"/>
      <feBlend in="SourceGraphic" in2="effect2_dropShadow" result="shape"/>
    </filter>
  </defs>
</svg>
