<svg xmlns="http://www.w3.org/2000/svg" fill="none" viewBox="0 0 149 157">
  <g filter="url(#Y8rtEelUd5a)" transform="rotate(-48.094 64.5 62.5)">
    <circle cx="64.5" cy="62.5" r="44.259" fill="url(#Y8rtEelUd5b)" fill-opacity=".6"/>
    <circle cx="64.5" cy="62.5" r="43.259" stroke="url(#Y8rtEelUd5c)" stroke-opacity=".65" stroke-width="2"/>
  </g>
  <g filter="url(#Y8rtEelUd5d)">
    <path fill-rule="evenodd" clip-rule="evenodd" d="M84.972 48.492C78.45 51.7 75.19 55.468 75.19 59.799c2.78.32 5.078 1.456 6.895 3.408 1.818 1.951 2.727 4.21 2.727 6.776 0 2.726-.882 5.025-2.646 6.896-1.764 1.871-3.983 2.807-6.655 2.807-2.994 0-5.586-1.216-7.778-3.649-2.191-2.432-3.287-5.386-3.287-8.86 0-10.426 5.826-18.578 17.479-24.459l3.047 5.774zm-23.014 0c-6.575 3.208-9.862 6.976-9.862 11.307 2.833.32 5.158 1.456 6.976 3.408 1.817 1.951 2.726 4.21 2.726 6.776 0 2.726-.896 5.025-2.686 6.896-1.791 1.871-4.023 2.807-6.695 2.807-2.994 0-5.573-1.216-7.738-3.649-2.164-2.432-3.247-5.386-3.247-8.86 0-10.426 5.8-18.578 17.399-24.459l3.127 5.774z" fill="#fff"/>
  </g>
  <defs>
    <linearGradient id="Y8rtEelUd5b" x1="20.241" y1="18.241" x2="125.802" y2="71.538" gradientUnits="userSpaceOnUse">
      <stop stop-color="#fff"/>
      <stop offset="1" stop-color="#fff" stop-opacity="0"/>
    </linearGradient>
    <linearGradient id="Y8rtEelUd5c" x1="20.928" y1="18.948" x2="125.723" y2="71.963" gradientUnits="userSpaceOnUse">
      <stop stop-color="#fff"/>
      <stop offset="1" stop-color="#fff" stop-opacity="0"/>
    </linearGradient>
    <filter id="Y8rtEelUd5a" x="-79.759" y="-81.759" width="288.518" height="288.518" filterUnits="userSpaceOnUse" color-interpolation-filters="sRGB">
      <feFlood flood-opacity="0" result="BackgroundImageFix"/>
      <feGaussianBlur in="BackgroundImage" stdDeviation="50"/>
      <feComposite in2="SourceAlpha" operator="in" result="effect1_backgroundBlur"/>
      <feColorMatrix in="SourceAlpha" values="0 0 0 0 0 0 0 0 0 0 0 0 0 0 0 0 0 0 127 0" result="hardAlpha"/>
      <feOffset dx="10" dy="20"/>
      <feGaussianBlur stdDeviation="15"/>
      <feColorMatrix values="0 0 0 0 0 0 0 0 0 0 0 0 0 0 0 0 0 0 0.05 0"/>
      <feBlend in2="effect1_backgroundBlur" result="effect2_dropShadow"/>
      <feBlend in="SourceGraphic" in2="effect2_dropShadow" result="shape"/>
    </filter>
    <filter id="Y8rtEelUd5d" x="21.432" y="26.718" width="83.54" height="76.968" filterUnits="userSpaceOnUse" color-interpolation-filters="sRGB">
      <feFlood flood-opacity="0" result="BackgroundImageFix"/>
      <feColorMatrix in="SourceAlpha" values="0 0 0 0 0 0 0 0 0 0 0 0 0 0 0 0 0 0 127 0" result="hardAlpha"/>
      <feOffset dy="4"/>
      <feGaussianBlur stdDeviation="10"/>
      <feColorMatrix values="0 0 0 0 0 0 0 0 0 0 0 0 0 0 0 0 0 0 0.1 0"/>
      <feBlend in2="BackgroundImageFix" result="effect1_dropShadow"/>
      <feBlend in="SourceGraphic" in2="effect1_dropShadow" result="shape"/>
    </filter>
  </defs>
</svg>
